 <svg version="1.0" xmlns="http://www.w3.org/2000/svg"  width="184.000000pt" height="184.000000pt" viewBox="0 0 184.000000 184.000000"  preserveAspectRatio="xMidYMid meet">  <g transform="translate(0.000000,184.000000) scale(0.050000,-0.050000)" fill="#000000" stroke="none"> <path d="M1614 3658 c-1406 -136 -2097 -1851 -1199 -2978 706 -887 2133 -892 2842 -10 809 1006 383 2503 -827 2908 -148 49 -569 116 -630 99 -5 -1 -89 -10 -186 -19z m283 -353 l-7 -194 160 -34 c390 -83 674 -273 860 -577 75 -123 157 -319 135 -322 -8 0 -31 -4 -50 -8 -26 -5 -54 34 -114 164 -167 354 -618 666 -965 666 -21 0 -25 -87 -23 -423 l2 -423 258 -89 c141 -49 342 -118 445 -153 l188 -64 -304 -107 c-167 -58 -362 -125 -432 -149 l-129 -43 316 -316 316 -316 125 134 c109 117 229 318 270 454 11 37 112 51 112 16 0 -106 -183 -419 -328 -561 l-110 -108 189 -178 c208 -195 219 -214 124 -214 -54 0 -91 26 -228 163 l-164 163 -147 -72 c-82 -40 -224 -87 -326 -108 l-180 -37 7 -194 7 -195 -62 0 -62 0 0 197 0 197 -170 33 c-330 65 -563 211 -785 491 l-38 47 -225 -82 c-269 -99 -287 -101 -278 -29 6 49 23 59 226 124 258 83 241 75 216 107 -104 131 -177 529 -134 738 34 170 99 372 130 406 35 38 15 49 -212 124 -220 72 -230 78 -230 131 0 71 4 71 280 -32 l230 -85 138 147 c207 222 454 348 777 397 l75 11 0 199 0 199 62 0 62 0 -7 -195z m466 36 c543 -176 871 -521 1053 -1105 34 -107 86 -240 117 -295 l57 -101 -56 -99 c-31 -55 -92 -210 -135 -345 -118 -361 -310 -656 -395 -603 -58 36 -50 84 33 213 108 166 183 340 197 458 17 140 -128 288 -264 269 -66 -9 -89 -5 -98 19 -6 16 -3 25 8 18 30 -18 49 91 23 133 -32 51 -31 113 1 81 73 -73 256 25 256 137 1 38 5 42 19 20 38 -59 61 65 33 172 -111 419 -513 813 -977 958 -104 33 -115 42 -115 92 0 35 9 53 25 48 14 -4 112 -36 218 -70z m-847 6 c-5 -44 -23 -59 -106 -87 -203 -69 -507 -255 -619 -379 -21 -23 -62 -41 -95 -41 -240 0 192 356 607 500 211 73 221 73 213 7z m812 -728 c130 -73 272 -208 317 -299 18 -39 61 -110 94 -160 81 -120 77 -131 -27 -70 -48 28 -176 79 -285 113 -323 101 -307 84 -307 310 l0 191 52 -13 c28 -7 98 -39 156 -72z m-1939 -306 c35 -25 36 -38 12 -177 -25 -146 -19 -510 10 -680 12 -67 8 -77 -38 -98 -72 -33 -101 -3 -155 159 -24 73 -52 139 -63 145 -10 7 -17 20 -16 30 1 10 -14 47 -33 82 -33 62 -33 67 9 142 25 43 38 84 31 91 -7 7 -3 13 8 13 11 0 37 52 56 115 67 215 94 241 179 178z m2307 -848 c-114 -222 -117 -224 -216 -155 -123 85 -138 127 -58 156 52 19 340 144 351 152 1 1 -33 -68 -77 -153z m-1852 -718 c160 -142 371 -272 531 -327 140 -47 145 -51 145 -114 l0 -65 -115 42 c-311 115 -566 263 -713 414 -153 159 -20 202 152 50z m1684 -279 c91 -35 52 -66 -206 -166 l-204 -80 6 70 c7 86 303 215 404 176z"/> <path d="M1670 2987 c-263 -55 -454 -153 -640 -330 -77 -73 -135 -138 -130 -142 6 -5 192 -74 415 -153 222 -79 418 -148 435 -155 26 -10 30 40 30 391 0 438 7 413 -110 389z m-150 -368 c0 -87 -45 -97 -118 -28 -23 22 66 108 113 109 3 0 5 -37 5 -81z"/> <path d="M763 2252 c-107 -295 -100 -613 18 -880 51 -115 5 -120 544 63 l456 155 -6 257 -5 258 -460 157 c-253 87 -466 158 -473 158 -7 0 -41 -76 -74 -168z m546 -242 l211 -75 0 -95 0 -95 -215 -80 c-398 -147 -385 -153 -385 190 l0 250 89 -10 c49 -5 184 -44 300 -85z"/> <path d="M1890 1840 c0 -188 4 -219 30 -208 16 7 163 58 325 113 l296 101 -315 107 c-174 59 -320 107 -326 107 -5 0 -10 -99 -10 -220z"/> <path d="M1341 1338 c-236 -85 -433 -163 -436 -173 -39 -118 777 -570 867 -480 5 5 6 189 3 408 l-5 399 -429 -154z m179 -278 c0 -92 -6 -94 -96 -40 -69 43 -68 71 3 100 80 32 93 24 93 -60z"/> <path d="M1889 1060 c1 -431 -17 -397 191 -350 135 31 256 77 336 127 46 29 43 32 -230 311 -152 155 -281 284 -287 287 -5 3 -10 -166 -10 -375z"/> </g> </svg> 